<?xml version="1.0" encoding="utf-8"?>
<!-- Generator: Adobe Illustrator 22.0.1, SVG Export Plug-In . SVG Version: 6.00 Build 0)  -->
<svg width='250px' height='194px' xmlns="http://www.w3.org/2000/svg"
	 viewBox="0 0 239.8 239.8" style="enable-background:new 0 0 239.8 239.8;" xml:space="preserve">

<style type="text/css">
@import url('https://fonts.googleapis.com/css?family=Open+Sans');
	.st0{fill:none;}
	.st1{fill:#00B2FF;}
	.st2{fill:#23AAE2;}
	.st3{font-family: 'Open Sans', sans-serif;}
	.st4{font-size:16px;}
</style>
<rect x="22" y="0" class="st0" width="194" height="194"/>
<path class="st1" d="M119,19.4L119,19.4c2.7,0,4.9,4.3,4.9,9.7v19.4c0,5.4-2.2,9.7-4.9,9.7l0,0c-2.7,0-4.8-4.3-4.8-9.7V29.1
	C114.2,23.7,116.3,19.4,119,19.4z">
<animate  accumulate="none" additive="replace" attributeName="opacity" begin="0s" calcMode="linear" dur="1s" fill="remove" from="1" repeatCount="indefinite" restart="always" to="0">
		</animate>
</path>
<path class="st1" d="M157.8,29.8L157.8,29.8c2.3,1.3,2,6.2-0.6,10.8l-9.7,16.8c-2.7,4.6-6.7,7.3-9.1,6l0,0c-2.3-1.3-2-6.2,0.6-10.8
	l9.7-16.8C151.4,31.1,155.5,28.5,157.8,29.8z">
<animate  accumulate="none" additive="replace" attributeName="opacity" begin="0.08333333333333333s" calcMode="linear" dur="1s" fill="remove" from="1" repeatCount="indefinite" restart="always" to="0">
		</animate>
</path>
<path class="st1" d="M186.2,58.2L186.2,58.2c1.3,2.3-1.3,6.4-6,9.1L163.4,77c-4.6,2.7-9.5,3-10.8,0.6l0,0c-1.3-2.3,1.3-6.4,6-9.1
	l16.8-9.7C180,56.2,184.9,55.9,186.2,58.2z">
<animate  accumulate="none" additive="replace" attributeName="opacity" begin="0.16666666666666666s" calcMode="linear" dur="1s" fill="remove" from="1" repeatCount="indefinite" restart="always" to="0">
		</animate>
</path>
<path class="st1" d="M196.6,97L196.6,97c0,2.7-4.3,4.8-9.7,4.8h-19.4c-5.4,0-9.7-2.2-9.7-4.8l0,0c0-2.7,4.3-4.9,9.7-4.9h19.4
	C192.3,92.2,196.6,94.3,196.6,97z">
<animate  accumulate="none" additive="replace" attributeName="opacity" begin="0.25s" calcMode="linear" dur="1s" fill="remove" from="1" repeatCount="indefinite" restart="always" to="0">
		</animate>
</path>
<path class="st1" d="M186.2,135.8L186.2,135.8c-1.3,2.3-6.2,2-10.8-0.6l-16.8-9.7c-4.6-2.7-7.3-6.7-6-9.1l0,0
	c1.3-2.3,6.2-2,10.8,0.6l16.8,9.7C184.9,129.4,187.5,133.5,186.2,135.8z">
<animate  accumulate="none" additive="replace" attributeName="opacity" begin="0.3333333333333333s" calcMode="linear" dur="1s" fill="remove" from="1" repeatCount="indefinite" restart="always" to="0">
		</animate>
</path>
<path class="st1" d="M157.8,164.2L157.8,164.2c-2.3,1.3-6.4-1.3-9.1-6l-9.7-16.8c-2.7-4.6-3-9.5-0.6-10.8l0,0c2.3-1.3,6.4,1.3,9.1,6
	l9.7,16.8C159.8,158,160.1,162.9,157.8,164.2z">
<animate  accumulate="none" additive="replace" attributeName="opacity" begin="0.4166666666666667s" calcMode="linear" dur="1s" fill="remove" from="1" repeatCount="indefinite" restart="always" to="0">
		</animate>
</path>
<path class="st1" d="M119,174.6L119,174.6c-2.7,0-4.8-4.3-4.8-9.7v-19.4c0-5.4,2.2-9.7,4.8-9.7l0,0c2.7,0,4.9,4.3,4.9,9.7v19.4
	C123.9,170.3,121.7,174.6,119,174.6z">
<animate  accumulate="none" additive="replace" attributeName="opacity" begin="0.5s" calcMode="linear" dur="1s" fill="remove" from="1" repeatCount="indefinite" restart="always" to="0">
		</animate>
</path>
<path class="st1" d="M80.2,164.2L80.2,164.2c-2.3-1.3-2-6.2,0.6-10.8l9.7-16.8c2.7-4.6,6.7-7.3,9.1-6l0,0c2.3,1.3,2,6.2-0.6,10.8
	l-9.7,16.8C86.6,162.9,82.5,165.5,80.2,164.2z">
<animate  accumulate="none" additive="replace" attributeName="opacity" begin="0.5833333333333334s" calcMode="linear" dur="1s" fill="remove" from="1" repeatCount="indefinite" restart="always" to="0">
		</animate>
</path>
<path class="st1" d="M51.8,135.8L51.8,135.8c-1.3-2.3,1.3-6.4,6-9.1l16.8-9.7c4.6-2.7,9.5-3,10.8-0.6l0,0c1.3,2.3-1.3,6.4-6,9.1
	l-16.8,9.7C58,137.8,53.1,138.1,51.8,135.8z">
<animate  accumulate="none" additive="replace" attributeName="opacity" begin="0.6666666666666666s" calcMode="linear" dur="1s" fill="remove" from="1" repeatCount="indefinite" restart="always" to="0">
		</animate>
</path>
<path class="st1" d="M41.4,97L41.4,97c0-2.7,4.3-4.9,9.7-4.9h19.4c5.4,0,9.7,2.2,9.7,4.9l0,0c0,2.7-4.3,4.8-9.7,4.8H51.1
	C45.7,101.9,41.4,99.7,41.4,97z">
<animate  accumulate="none" additive="replace" attributeName="opacity" begin="0.75s" calcMode="linear" dur="1s" fill="remove" from="1" repeatCount="indefinite" restart="always" to="0">
		</animate>
</path>
<path class="st1" d="M51.8,58.2L51.8,58.2c1.3-2.3,6.2-2,10.8,0.6l16.8,9.7c4.6,2.7,7.3,6.7,6,9.1l0,0c-1.3,2.3-6.2,2-10.8-0.6
	l-16.8-9.7C53.1,64.6,50.5,60.5,51.8,58.2z">
<animate  accumulate="none" additive="replace" attributeName="opacity" begin="0.8333333333333334s" calcMode="linear" dur="1s" fill="remove" from="1" repeatCount="indefinite" restart="always" to="0">
		</animate>
</path>
<path class="st1" d="M80.2,29.8L80.2,29.8c2.3-1.3,6.4,1.3,9.1,6L99,52.6c2.7,4.6,3,9.5,0.6,10.8l0,0c-2.3,1.3-6.4-1.3-9.1-6
	l-9.7-16.8C78.2,36,77.9,31.1,80.2,29.8z">
<animate  accumulate="none" additive="replace" attributeName="opacity" begin="0.9166666666666666s" calcMode="linear" dur="1s" fill="remove" from="1" repeatCount="indefinite" restart="always" to="0">
		</animate>
</path>
<rect x="46.5" y="194.3" class="st0" width="142.5" height="72"/>
<text transform="matrix(1 0 0 1 80.3994 202.8674)" class="st2 st3 st4">Please wait...</text>
</svg>
